<?xml version="1.0" encoding="utf-8"?>
<svg viewBox="0 0 279.1201 149.27" xmlns="http://www.w3.org/2000/svg">
  <defs>
    <style>.cls-1{fill:#9d9795;}.cls-2{fill:#cfb991;}</style>
  </defs>
  <path d="M148,149.27,166.87,105H198.1c45.2,0,62.35-18.56,74.21-46.43,4.39-10.31,11.74-27.58,2-42.27S244.19,0,229.61,0h-166L40.2,55H70.25L53.53,94.26H23.42L0,149.27Z" style="fill: rgb(255, 255, 255);" transform="matrix(0.9999999999999999, 0, 0, 0.9999999999999999, 0, 0)"/>
  <path class="cls-1" d="M265.84,21.92c-5.28-8-16.8-11.72-36.23-11.72H70.36L55.64,44.78h30L60.27,104.46H30.16L15.43,139.08H141.28L156,104.46H125.49l4.12-9.67H198.1c44.06,0,55.81-19,64.83-40.21,4.85-11.42,9.07-23.34,2.91-32.66M150.9,44.78h50.3c6.94,0,5.94,3.48,5,5.64-2.57,6-8.75,9.78-16.11,9.78H144.34Z" style="fill: rgb(0, 0, 0);" transform="matrix(0.9999999999999999, 0, 0, 0.9999999999999999, 0, 0)"/>
  <path class="cls-2" d="M229.61,15.51H73.86l-10.21,24H93.7L63.78,109.76H33.67l-10.22,24H137.78l10.22-24H117.47l8.64-20.28h72c41.27,0,51.65-17.48,60-37s12.83-37-28.44-37m-39.49,50h-53.8l11.08-26h53.8c9.52,0,13.36,4.89,9.91,13s-11.46,13-21,13" style="fill: rgb(255, 255, 255);" transform="matrix(0.9999999999999999, 0, 0, 0.9999999999999999, 0, 0)"/>
</svg>