<?xml version="1.0" encoding="UTF-8"?><svg id="full-cmyk" xmlns="http://www.w3.org/2000/svg" viewBox="0 0 206.77 206.75"><defs><style>.cls-1{fill:#fff;}</style></defs><g id="logoMark"><path id="logoMark__CompoundPathItem_" class="cls-1" d="M103.39,0C46.29,0,0,46.28,0,103.38s46.29,103.38,103.39,103.38,103.38-46.28,103.38-103.38S160.48,0,103.39,0ZM44.93,122.57c1.59,1.88,4.16,2.77,7.94,2.77s6.34-.89,7.93-2.77c1.68-1.98,2.28-4.96,2.28-9.53v-40.26h20.24v39.87c0,9.42-1,13.98-3.68,18.55-4.46,7.44-16.36,10.31-26.77,10.31s-22.31-2.87-26.77-10.31c-2.68-4.57-3.68-9.12-3.68-18.55v-39.87h20.23v40.26c0,4.56,.6,7.55,2.28,9.53Zm50.67,17.65V72.79h20.23v67.43h-20.23Zm63.56,1.19c-21.32,0-33.51-14.28-33.51-34.91s12.89-34.89,33.91-34.89c16.06,0,25.58,9.22,28.95,18.04l-17.54,8.43c-1.69-6.54-5.36-10.41-11.71-10.41-8.63,0-12.99,7.14-12.99,18.83s4.37,18.55,12.99,18.55c5.95,0,9.43-3.17,11.3-8.43l18.35,6.54c-4.76,10.81-14.38,18.25-29.75,18.25Z"/></g></svg>