<?xml version="1.0" standalone="no"?>
<!DOCTYPE svg PUBLIC "-//W3C//DTD SVG 20010904//EN"
 "http://www.w3.org/TR/2001/REC-SVG-20010904/DTD/svg10.dtd">
<svg version="1.0" xmlns="http://www.w3.org/2000/svg"
 width="630.000000pt" height="630.000000pt" viewBox="0 0 630.000000 630.000000"
 preserveAspectRatio="xMidYMid meet">
<metadata>
Created by potrace 1.14, written by Peter Selinger 2001-2017
</metadata>
<g transform="translate(0.000000,630.000000) scale(0.100000,-0.100000)"
fill="#000000" stroke="none">
<path d="M2767 5674 c-1 -1 -103 -5 -227 -8 -221 -6 -326 -10 -525 -21 -295
-16 -404 -24 -677 -50 -91 -9 -153 -17 -157 -21 -7 -7 -3 -2839 4 -2899 4 -33
9 -71 11 -85 1 -14 5 -34 7 -45 2 -11 10 -51 17 -90 7 -38 19 -95 27 -125 18
-70 22 -86 27 -109 3 -11 10 -29 16 -40 6 -12 9 -21 6 -21 -2 0 7 -30 21 -67
14 -38 30 -81 36 -98 5 -16 17 -40 25 -52 8 -13 12 -23 9 -23 -5 0 33 -76 101
-205 15 -27 30 -51 35 -53 4 -2 7 -10 7 -17 0 -7 3 -15 8 -17 9 -4 52 -65 52
-73 0 -4 6 -12 13 -19 6 -7 21 -25 32 -40 80 -110 210 -249 320 -341 33 -27
62 -52 65 -56 3 -3 43 -33 90 -66 105 -76 257 -166 374 -222 79 -38 285 -121
311 -125 6 -1 15 -4 20 -8 6 -3 77 -23 158 -43 144 -36 206 -44 257 -33 14 4
36 9 50 12 14 3 36 8 50 11 35 6 172 44 190 52 8 4 20 7 25 8 14 2 86 25 110
35 11 5 43 18 71 29 95 36 313 141 343 164 19 16 53 36 74 43 9 3 17 10 17 15
0 5 4 9 10 9 21 0 229 159 298 227 18 18 37 33 42 33 6 0 10 3 10 8 1 4 30 39
66 77 78 84 186 225 240 315 21 36 41 67 44 70 7 6 84 165 103 210 8 19 23 53
32 75 23 49 83 235 90 274 3 17 10 43 16 58 6 15 10 29 9 31 -1 1 4 26 9 55
18 86 21 100 27 157 3 30 9 59 12 65 11 17 10 2935 -1 2942 -5 3 -33 7 -61 8
-29 2 -81 6 -116 9 -36 4 -85 9 -110 11 -25 3 -83 7 -130 10 -47 3 -112 7
-145 10 -188 15 -477 29 -815 41 -156 5 -1019 12 -1023 8z"/>
</g>
</svg>
